<?xml version="1.0" encoding="UTF-8"?>
<!DOCTYPE svg PUBLIC "-//W3C//DTD SVG 1.1//EN" "http://www.w3.org/Graphics/SVG/1.1/DTD/svg11.dtd">
<!-- Creator: CorelDRAW 2020 (64-Bit) -->
<svg xmlns="http://www.w3.org/2000/svg" xml:space="preserve" width="2.5in" height="2.5in" version="1.1" style="shape-rendering:geometricPrecision; text-rendering:geometricPrecision; image-rendering:optimizeQuality; fill-rule:evenodd; clip-rule:evenodd"
viewBox="0 0 325.5 325.5"
 xmlns:xlink="http://www.w3.org/1999/xlink"
 xmlns:xodm="http://www.corel.com/coreldraw/odm/2003">
 <defs>
  <style type="text/css">
   <![CDATA[
    .fil1 {fill:black}
    .fil0 {fill:#176585}
   ]]>
  </style>
 </defs>
 <g id="Layer_x0020_1">
  <metadata id="CorelCorpID_0Corel-Layer"/>
  <circle class="fil0" cx="162.75" cy="162.75" r="162.75"/>
  <path class="fil1" d="M105.14 66.9c5.58,7.4 14.62,11.2 23.17,16.31 9.34,5.58 17.09,13.75 29.07,9.08 5.23,-13.77 -2.31,-14.97 -13.03,-21.48l-7.72 -6.22c45.01,-5.76 66.59,-1.95 98.13,27.88 5.7,5.39 5.21,4.3 9.46,10.41 17.87,25.7 25.16,56.85 15.1,89.6 -4.14,13.48 -10.3,15.93 -5.26,28.74 15.98,3.88 17.05,-4.56 22.12,-19.2 30.76,-88.77 -48.04,-177.84 -141.65,-156.05 1.34,-6.94 9.11,-15.37 8.71,-22.5 -0.6,-10.84 -12.62,-11.85 -18.06,-3.1 -5.65,9.09 -20.9,37.26 -20.05,46.52z"/>
  <path class="fil1" d="M190.78 279.54c-1.22,6.86 -9.04,15.35 -8.65,22.46 0.59,10.84 12.56,11.92 18.04,3.09 5.72,-9.22 20.9,-37.05 20.11,-46.51 -5.14,-6.95 -14.81,-10.89 -23.29,-16.26 -9.32,-5.9 -16.77,-13.54 -29.11,-9.23 -4.91,14 2.25,14.83 13.18,21.56l7.6 6.19c-34.19,4.93 -59.92,3.78 -89.01,-18.84 -5.18,-4.03 -4.48,-4.67 -9,-9.02 -5.67,-5.45 -5.14,-4.47 -9.49,-10.38 -10.25,-13.89 -18.69,-33.9 -19.53,-56.2 -0.44,-11.6 1.14,-22.7 4.5,-33.39 4.15,-13.2 10.16,-16.23 5.2,-28.74 -15.94,-3.62 -17.06,4.37 -22.13,19.18 -30.1,87.97 46.25,177.55 141.58,156.08z"/>
  <path class="fil1" d="M88.78 135.88c8.79,-1.42 11.7,-6.94 20.87,-7.45l-0.07 50.67c-0.05,20.5 0.52,14.3 -15.36,17.51 3.88,4.69 -2.02,0.64 3.78,2.6 0.77,0.26 32.59,3.08 36.99,-2.12 -14.32,-6.22 -15.77,11.17 -14.91,-32.55 0.29,-14.75 1.26,-32 0.46,-46.46 -5.94,0.86 -11.45,4.51 -17.48,6.72 -18.24,6.69 -14.06,1.83 -14.3,11.07z"/>
  <path class="fil1" d="M166.57 159.91c-18.5,10.2 -15.32,41.15 9.73,36.19 8.66,-1.71 15.4,-10.46 11.25,-21.86 -2.35,-6.44 -14.07,-12.07 -20.98,-14.33zm-5.54 -2.6l-10.46 9.66c-22.62,30.01 38.21,51.03 46.51,13.55 3.76,-16.95 -6.81,-20.88 -15.97,-26.51 4.76,-6.42 14.31,-8.26 13.36,-21.69 -1.44,-20.31 -37.84,-20.37 -44.03,-1.51 -5.13,15.64 3.53,19.8 10.59,26.5zm16.03 -5.85c16.19,-11.58 10.04,-33.73 -8.35,-29.75 -7.32,1.58 -12.86,9.04 -8.96,18.36 2.12,5.08 10.39,9.42 17.31,11.39z"/>
  <polygon class="fil1" points="218.88,142.85 218.89,152.31 201.6,152.58 201.64,163.24 218.85,163.65 218.95,180.53 230.92,180.59 231.55,163.66 247.69,163.46 248.61,153 231.12,152.4 231.18,135.47 218.86,135.24 "/>
 </g>
</svg>
