<?xml version="1.0" encoding="UTF-8"?>
<!DOCTYPE svg PUBLIC "-//W3C//DTD SVG 1.1//EN" "http://www.w3.org/Graphics/SVG/1.1/DTD/svg11.dtd">
<!-- Creator: CorelDRAW 2020 (64-Bit) -->
<svg xmlns="http://www.w3.org/2000/svg" xml:space="preserve" width="0.103953in" height="0.106665in" version="1.1" style="shape-rendering:geometricPrecision; text-rendering:geometricPrecision; image-rendering:optimizeQuality; fill-rule:evenodd; clip-rule:evenodd"
viewBox="0 0 0.73 0.75"
 xmlns:xlink="http://www.w3.org/1999/xlink"
 xmlns:xodm="http://www.corel.com/coreldraw/odm/2003">
 <defs>
  <style type="text/css">
   <![CDATA[
    .fil0 {fill:#176585;fill-rule:nonzero}
    .fil1 {fill:white;fill-rule:nonzero}
   ]]>
  </style>
 </defs>
 <g id="Layer_x0020_1">
  <metadata id="CorelCorpID_0Corel-Layer"/>
  <path class="fil0" d="M0.23 0.42l-0.23 0.01c-0,0 -0,-0 -0,-0 -0,-0 -0,-0 -0,-0l-0 -0.04c0,-0 0,-0 0,-0l0 -0 0.08 -0.04c-0,-0.01 -0,-0.01 -0,-0.02 -0,-0 0,-0 0,-0 0,-0 0.02,-0.02 0.04,-0.01 0,0 0,0 0,0 0,0 0,0.01 0.01,0.01l0.01 -0 0.05 -0.02c-0,-0.01 -0.01,-0.02 -0.01,-0.03 -0,-0 0,-0 0,-0 0,-0 0.02,-0.02 0.04,-0.01 0,0 0,0 0,0 0,0 0.01,0.01 0.01,0.02l0.07 -0.03 0 -0.02c-0,-0.03 -0,-0.06 -0,-0.1 0,-0 0,-0 0,-0.01 0,-0.02 0,-0.08 0.03,-0.11 0.01,-0.02 0.03,-0.02 0.05,-0.02 0.05,0.01 0.05,0.2 0.05,0.23 -0,0 -0,0.01 -0,0.01l-0 0 0 0 0 0 0.07 0.03c0,-0.01 0.01,-0.02 0.01,-0.02 0,-0 0,-0 0,-0 0.03,-0.01 0.04,0.01 0.04,0.01 0,0 0,0 0,0 -0,0.01 -0,0.02 -0,0.02l0.06 0.03c0,-0 0,-0.01 0,-0.01 0,-0 0,-0 0,-0l0 -0c0.03,-0.01 0.04,0.01 0.04,0.01 0,0 0,0 0,0 -0,0.01 -0,0.01 -0,0.01l0.08 0.03c0,0 0,0 0,0l-0 0.04c-0,0 -0,0 -0,0 -0,0 -0,0 -0,0l-0.18 -0.01 -0.12 -0.01 -0 0c-0,0.02 -0,0.03 -0,0.05 0,0.02 -0.01,0.08 -0.01,0.13 -0,0.01 -0,0.03 -0.01,0.04l0.06 0.06c0,0 0,0 0,0l-0 0.05c-0,0 -0,0 -0,0 -0,0 -0,0 -0,0l-0.09 -0.04 -0.09 0.04c-0,0 -0,0 -0,-0 -0,-0 -0,-0 -0,-0l-0 -0.06c0,-0 0,-0 0,-0l0.06 -0.05c-0.01,-0.04 -0.02,-0.09 -0.02,-0.13 -0,-0.03 -0,-0.06 -0.01,-0.09l-0.08 0zm-0.04 -0.12l0.04 -0.02c-0,-0.01 -0.01,-0.02 -0.01,-0.02 -0.02,-0 -0.03,0.01 -0.03,0.01 0,0.01 0,0.02 0.01,0.03zm0.31 -0.02l0.04 0.02c0,-0.01 0,-0.01 0,-0.02 -0,-0 -0.01,-0.02 -0.03,-0.01 -0,0 -0.01,0.01 -0.01,0.01zm0.11 0.05l0.04 0.02c0,-0 0,-0.01 0,-0.01 -0,-0 -0.01,-0.02 -0.03,-0.01 -0,0 -0,0 -0,0.01zm0.02 0.09l0 -0.01 -0.08 -0.02 -0 0.03 0.08 0zm-0.44 -0l-0 -0.03 -0.08 0.02 0 0.01 0.08 -0zm-0.09 -0.07l0.04 -0.02c-0,-0.01 -0.01,-0.01 -0.01,-0.01 -0.02,-0 -0.03,0.01 -0.03,0.01 0,0.01 0,0.01 0,0.02z"/>
  <path class="fil1" d="M0.33 0.39c0,-0 -0,-0.01 -0,-0.01 -0,0 -0,0 -0,0.01 -0,0 0,0.01 0,0.01 0,0 0,-0 0,-0.01z"/>
  <path class="fil1" d="M0.33 0.37c0,-0 -0,-0.01 -0,-0.01 -0,-0 -0,0 -0,0.01 -0,0 0,0.01 0,0.01 0,0 0,-0 0,-0.01z"/>
  <path class="fil1" d="M0.33 0.35c0,-0 -0,-0.01 -0,-0.01 -0,0 -0,0 -0,0.01 -0,0 0,0.01 0,0.01 0,0 0,-0 0,-0.01z"/>
  <path class="fil1" d="M0.33 0.33c0,-0 -0,-0.01 -0,-0.01 -0,0 -0,0 -0,0.01 -0,0 0,0.01 0,0.01 0,0 0,-0 0,-0.01z"/>
  <path class="fil1" d="M0.33 0.31c0,-0 -0,-0.01 -0,-0.01 -0,0 -0,0 -0,0.01 -0,0 0,0.01 0,0.01 0,-0 0,-0 0,-0.01z"/>
  <path class="fil1" d="M0.33 0.28c0,-0 -0,-0.01 -0,-0.01 -0,0 -0,0 -0,0.01 0,0 0,0.01 0,0.01 0,0 0,-0 0,-0.01z"/>
  <path class="fil1" d="M0.33 0.26c-0,-0 -0,-0.01 -0,-0.01 -0,0 -0,0 -0,0.01 0,0 0,0.01 0,0.01 0,0 0,-0 0,-0.01z"/>
  <path class="fil1" d="M0.33 0.24c-0,-0 -0,-0.01 -0,-0.01 -0,0 -0,0 -0,0.01 0,0 0,0.01 0,0.01 0,0 0,-0 0,-0.01z"/>
  <path class="fil1" d="M0.33 0.22c-0,-0 -0,-0.01 -0,-0.01 -0,0 -0,0 -0,0.01 0,0 0,0.01 0,0.01 0,-0 0,-0 0,-0.01z"/>
  <path class="fil1" d="M0.33 0.19c-0,-0 -0,-0.01 -0,-0.01 -0,0 -0,0 -0,0.01 0,0 0,0.01 0,0.01 0,-0 0,-0 0,-0.01z"/>
  <path class="fil1" d="M0.33 0.17c-0,-0 -0,-0.01 -0,-0.01 -0,0 -0,0 -0,0.01 0,0 0,0.01 0,0.01 0,-0 0,-0 0,-0.01z"/>
  <path class="fil1" d="M0.33 0.15c-0,-0 -0,-0.01 -0,-0.01 -0,0 -0,0 -0,0.01 0,0 0,0.01 0,0.01 0,-0 0,-0 0,-0.01z"/>
  <path class="fil1" d="M0.41 0.15c-0,0 0,0.01 0,0.01 0,0 0,-0 0,-0.01 0,-0 -0,-0.01 -0,-0.01 -0,-0 -0,0 -0,0.01z"/>
  <path class="fil1" d="M0.42 0.17c0,-0 -0,-0.01 -0,-0.01 -0,-0 -0,0 -0,0.01 -0,0 0,0.01 0,0.01 0,0 0,-0 0,-0.01z"/>
  <path class="fil1" d="M0.42 0.19c0,-0 -0,-0.01 -0,-0.01 -0,-0 -0,0 -0,0.01 -0,0 0,0.01 0,0.01 0,0 0,-0 0,-0.01z"/>
  <path class="fil1" d="M0.41 0.22c0,0 0,-0 0,-0.01 0,-0 -0,-0.01 -0,-0.01 -0,-0 -0,0 -0,0.01 -0,0 0,0.01 0,0.01z"/>
  <path class="fil1" d="M0.41 0.24c0,0 0,-0 0,-0.01 0,-0 -0,-0.01 -0,-0.01 -0,-0 -0,0 -0,0.01 -0,0 0,0.01 0,0.01z"/>
  <path class="fil1" d="M0.41 0.26c-0,0 0,0.01 0,0.01 0,0 0,-0 0,-0.01 0,-0 -0,-0.01 -0,-0.01 -0,-0 -0,0 -0,0.01z"/>
  <path class="fil1" d="M0.41 0.28c0,-0 -0,-0.01 -0,-0.01 -0,-0 -0,0 -0,0.01 -0,0 0,0.01 0,0.01 0,0 0,-0 0,-0.01z"/>
  <path class="fil1" d="M0.41 0.3c0,-0 -0,-0.01 -0,-0.01 -0,-0 -0,0 -0,0.01 -0,0 0,0.01 0,0.01 0,0 0,-0 0,-0.01z"/>
  <path class="fil1" d="M0.41 0.32c0,-0 -0,-0.01 -0,-0.01 -0,-0 -0,0 -0,0.01 -0,0 0,0.01 0,0.01 0,0 0,-0 0,-0.01z"/>
  <path class="fil1" d="M0.41 0.35c0,-0 -0,-0.01 -0,-0.01 -0,-0 -0,0 -0,0.01 -0,0 0,0.01 0,0.01 0,0 0,-0 0,-0.01z"/>
  <path class="fil1" d="M0.41 0.37c0,-0 -0,-0.01 -0,-0.01 -0,-0 -0,0 -0,0.01 0,0 0,0.01 0,0.01 0,0 0,-0 0,-0.01z"/>
  <path class="fil1" d="M0.41 0.39c-0,-0 -0,-0.01 -0,-0.01 -0,-0 -0,0 -0,0.01 0,0 0,0.01 0,0.01 0,0 0,-0 0,-0.01z"/>
  <path class="fil1" d="M0.33 0.08c0.03,-0.02 0.06,-0.01 0.07,-0.01l-0 -0.01c-0.04,-0.02 -0.06,0 -0.06,0.01l-0 0.01zm-0 0.01c-0,-0 -0,-0 -0,-0l0 -0.02 0 -0c0,-0 0.03,-0.03 0.07,-0.01 0,0 0,0 0,0l0.01 0.02c0,0 -0,0 -0,0 -0,0 -0,0 -0,0 -0,-0 -0.04,-0.02 -0.07,0.01 -0,0 -0,0 -0,0z"/>
  <path class="fil1" d="M0.37 0.68c0,0 0,0 0,0 0,0 0,-0 0,-0l0 -0 0 -0.07c0,-0 -0,-0 -0,-0 -0,0 -0,0 -0,0l-0 0.07 0 0zm0 0.01c-0,-0 -0,-0 -0.01,-0 -0,-0 -0,-0 -0,-0l0 -0.07c0,-0 0,-0 0,-0 0,-0 0,-0 0.01,-0 0,0 0.01,0 0.01,0.01l-0 0.07c-0,0 -0,0.01 -0.01,0.01z"/>
 </g>
</svg>
